<svg xmlns="http://www.w3.org/2000/svg" xmlns:svg="http://www.w3.org/2000/svg" id="Layer_1" width="198" height="99" x="0" y="0" enable-background="new 0 0 198 99" version="1.1" viewBox="0 0 198 99" xml:space="preserve"><metadata id="metadata327"/><circle id="circle7" cx="16.5" cy="16.609" r="12" fill="#2c3037" fill-opacity="1"/><circle id="circle13" cx="16.5" cy="49.465" r="12" fill="#2c3037" fill-opacity="1"/><circle id="circle19" cx="16.5" cy="82.477" r="12" fill="#2c3037" fill-opacity="1"/><polyline id="polyline21" fill="none" stroke="#aeaeae" stroke-miterlimit="10" stroke-opacity="1" stroke-width="2.305" points="21.453 78.612 15.788 86.438 11.775 82.525" transform="matrix(1.2821748,0,0,1.2821748,-4.8286697,-24.090865)"/><circle id="circle25" cx="49.5" cy="16.609" r="12" fill="#2c3037" fill-opacity="1"/><circle id="circle31" cx="49.5" cy="49.465" r="12" fill="#2c3037" fill-opacity="1"/><circle id="circle37" cx="49.5" cy="82.477" r="12" fill="#2c3037" fill-opacity="1"/><rect id="rect43" width="21" height="21" x="105" y="6.109" fill="#2c3037" fill-opacity="1"/><rect id="rect61" width="21" height="21" x="138" y="6.109" fill="#2c3037" fill-opacity="1"/><rect id="rect79" width="21" height="21" x="105" y="38.965" fill="#2c3037" fill-opacity="1"/><rect id="rect97" width="21" height="21" x="138" y="38.965" fill="#2c3037" fill-opacity="1"/><rect id="rect115" width="21" height="21" x="105" y="71.977" fill="#2c3037" fill-opacity="1"/><rect id="rect133" width="21" height="21" x="138" y="71.977" fill="#2c3037" fill-opacity="1"/><rect id="rect153" width="21" height="21" x="72" y="6.109" fill="#2c3037" fill-opacity="1"/><rect id="rect195" width="21" height="21" x="72" y="38.965" fill="#2c3037" fill-opacity="1"/><path id="path235" fill="#aeaeae" fill-opacity="1" d="M 87.042,87.965"/><rect id="rect237" width="21" height="21" x="72" y="71.977" fill="#2c3037" fill-opacity="1" stroke="none" stroke-dasharray="none" stroke-miterlimit="4" stroke-opacity="1" stroke-width=".1"/><rect id="rect273" width="2.513" height="11" x="81.243" y="77.059" fill="#aeaeae" fill-opacity="1" stroke-width="5.282"/><rect id="rect277" width="21" height="21" x="171" y="6.109" fill="#2c3037" fill-opacity="1"/><rect id="rect293" width="21" height="21" x="171" y="38.965" fill="#2c3037" fill-opacity="1"/><circle id="circle301" cx="181.561" cy="48.375" r="4.428" fill="none" stroke="#fff" stroke-miterlimit="10" stroke-opacity="1" stroke-width="2.116"/><rect id="rect303" width="2.901" height="4.788" x="159.173" y="-93.121" fill="#fff" fill-opacity="1" stroke-width="1.083" transform="rotate(46.251968)"/><rect id="rect305" width="2.195" height="2.161" x="180.463" y="47.295" fill="#fff" fill-opacity="1" stroke-width="1.083"/><rect id="rect309" width="21" height="21" x="171" y="71.977" fill="none" fill-opacity="1"/><circle id="circle317" cx="181.519" cy="81.429" r="4.403" fill="none" stroke="#aeaeae" stroke-miterlimit="10" stroke-opacity="1" stroke-width="2.104"/><rect id="rect319" width="2.885" height="4.762" x="183.027" y="-70.259" fill="#aeaeae" fill-opacity="1" stroke-width="1.077" transform="rotate(46.251968)"/><rect id="rect321" width="2.183" height="2.149" x="180.427" y="80.354" fill="#aeaeae" fill-opacity="1" stroke-width="1.077"/><rect id="rect10" width="12.224" height="1.636" x="43.39" y="75.931" fill="#aeaeae" fill-opacity="1" stroke-width=".045"/><rect id="rect10-5" width="12.224" height="1.636" x="43.394" y="42.962" fill="#fff" fill-opacity="1" stroke-width=".045"/><polygon id="polygon117-9" fill="#aeaeae" fill-opacity="1" points="114.44 80.983 110.586 80.983 116.032 75.488 121.502 80.959 117.751 80.958 117.726 84.95 114.44 84.95" transform="translate(-66.534523,4.0179221)"/><polygon id="polygon117-9-8" fill="#fff" fill-opacity=".941" points="117.726 84.95 114.44 84.95 114.44 80.983 110.586 80.983 116.032 75.488 121.502 80.959 117.751 80.958" transform="translate(-66.534523,-29.094565)"/><rect id="rect273-4" width="2.513" height="11" x="-83.816" y="77" fill="#aeaeae" fill-opacity="1" stroke-width="5.282" transform="rotate(-90)"/><rect id="rect10-7" width="12.224" height="1.636" x="-154.678" y="-89.012" fill="#aeaeae" fill-opacity="1" stroke-width=".045" transform="scale(-1)"/><polygon id="polygon117-9-5" fill="#aeaeae" fill-opacity="1" points="114.44 80.983 110.586 80.983 116.032 75.488 121.502 80.959 117.751 80.958 117.726 84.95 114.44 84.95" transform="rotate(-180,132.29725,80.432507)"/><rect id="rect10-7-9" width="12.224" height="1.636" x="-154.678" y="-55.817" fill="#fff" fill-opacity="1" stroke-width=".045" transform="scale(-1)"/><polygon id="polygon117-9-5-6" fill="#fff" fill-opacity="1" points="117.726 84.95 114.44 84.95 114.44 80.983 110.586 80.983 116.032 75.488 121.502 80.959 117.751 80.958" transform="rotate(-180,132.29725,63.83495)"/><polygon id="polygon117-9-5-1" fill="#aeaeae" fill-opacity="1" points="121.502 80.959 117.751 80.958 117.726 84.95 114.44 84.95 114.44 80.983 110.586 80.983 116.032 75.488" transform="rotate(45.155306,116.73127,82.146912)"/><rect id="rect10-7-7" width="10.275" height="1.636" x="-120.142" y="-89.012" fill="#aeaeae" fill-opacity="1" stroke-width=".042" transform="scale(-1)"/><rect id="rect10-7-7-8" width="12.136" height="1.636" x="76.876" y="-111.503" fill="#aeaeae" fill-opacity="1" stroke-width=".045" transform="rotate(90)"/><polygon id="polygon117-9-5-1-5" fill="#fff" fill-opacity="1" points="116.032 75.488 121.502 80.959 117.751 80.958 117.726 84.95 114.44 84.95 114.44 80.983 110.586 80.983" transform="rotate(45.155306,156.5887,65.574092)"/><rect id="rect10-7-7-7" width="10.275" height="1.636" x="-120.142" y="-55.866" fill="#fff" fill-opacity="1" stroke-width=".042" transform="scale(-1)"/><rect id="rect10-7-7-8-4" width="12.136" height="1.636" x="43.731" y="-111.503" fill="#fff" fill-opacity="1" stroke-width=".045" transform="rotate(90)"/><rect id="rect273-1" width="2.513" height="11" x="81.243" y="43.781" fill="#fff" fill-opacity="1" stroke-width="5.282"/><rect id="rect273-4-8" width="2.513" height="11" x="-50.538" y="77" fill="#fff" fill-opacity="1" stroke-width="5.282" transform="rotate(-90)"/><polyline id="polyline21-5" fill="none" stroke="#fff" stroke-miterlimit="10" stroke-opacity="1" stroke-width="2.305" points="21.453 78.612 15.788 86.438 11.775 82.525" transform="matrix(1.2821748,0,0,1.2821748,-4.8835997,-57.270172)"/><rect id="rect273-1-9" width="2.513" height="11" x="81.243" y="11.125" fill="#fc0" fill-opacity="1" stroke-width="5.282"/><rect id="rect273-4-8-7" width="2.513" height="11" x="-17.882" y="77" fill="#fc0" fill-opacity="1" stroke-width="5.282" transform="rotate(-90)"/><rect id="rect10-5-5" width="12.224" height="1.636" x="43.394" y="10.222" fill="#fc0" fill-opacity="1" stroke-width=".045"/><polygon id="polygon117-9-8-3" fill="#fc0" fill-opacity="1" points="117.751 80.958 117.726 84.95 114.44 84.95 114.44 80.983 110.586 80.983 116.032 75.488 121.502 80.959" transform="translate(-66.534523,-61.834156)"/><polyline id="polyline21-5-8" fill="none" stroke="#fc0" stroke-miterlimit="10" stroke-opacity="1" stroke-width="2.305" points="21.453 78.612 15.788 86.438 11.775 82.525" transform="matrix(1.2821748,0,0,1.2821748,-4.8899409,-90.002625)"/><polygon id="polygon117-9-5-1-5-8" fill="#fc0" fill-opacity="1" points="114.44 80.983 110.586 80.983 116.032 75.488 121.502 80.959 117.751 80.958 117.726 84.95 114.44 84.95" transform="rotate(45.155306,195.99773,49.187713)"/><rect id="rect10-7-7-7-3" width="10.275" height="1.636" x="-120.142" y="-23.094" fill="#fc0" fill-opacity="1" stroke-width=".042" transform="scale(-1)"/><rect id="rect10-7-7-8-4-1" width="12.136" height="1.636" x="10.958" y="-111.503" fill="#fc0" fill-opacity="1" stroke-width=".045" transform="rotate(90)"/><rect id="rect10-7-9-8" width="12.224" height="1.636" x="-154.678" y="-23.078" fill="#fc0" fill-opacity="1" stroke-width=".045" transform="scale(-1)"/><polygon id="polygon117-9-5-6-9" fill="#fc0" fill-opacity="1" points="117.751 80.958 117.726 84.95 114.44 84.95 114.44 80.983 110.586 80.983 116.032 75.488 121.502 80.959" transform="rotate(-180,132.29725,47.465511)"/><circle id="circle301-6" cx="181.559" cy="15.478" r="4.428" fill="none" stroke="#fc0" stroke-miterlimit="10" stroke-opacity="1" stroke-width="2.116"/><rect id="rect303-4" width="2.901" height="4.788" x="135.407" y="-115.868" fill="#fc0" fill-opacity="1" stroke-width="1.083" transform="rotate(46.251968)"/><rect id="rect305-3" width="2.195" height="2.161" x="180.461" y="14.398" fill="#fc0" fill-opacity="1" stroke-width="1.083"/></svg>